<?xml version="1.0" encoding="UTF-8"?>
<svg id="Layer_1" data-name="Layer 1" xmlns="http://www.w3.org/2000/svg" viewBox="0 0 1149.14 1912.92">
  <path d="M1144.13,0c6.87,2.09,2.18,26.11,2.07,32.02-5.84,311.16,4.57,622.93,0,934.15.27,55.15,4.72,114.67,1.56,169.68-.6,10.47-1.84,10.05-12.12,10.7-12.37.79-24.86-1.43-37.06,0-361.61.58-723.75-1.08-1085.03.06-2.45,0-13.55-1.45-13.55-3.69V170.4c0-.3,1.38-6.16,3.4-4.85,43.4,16.61,91.23,17.76,136.33,29.08,57.99,14.55,122.91,44.21,161.05,91.32,6.23,7.7,19.74,31.39,27.58,33.85,2.37.74,5.25,1.1,6.79-1.34,2.13-3.38,1.73-29.59,1.37-35.47-5.17-83.21-73.46-123.55-145.49-145.39-31-9.4-70-14.06-99.13-24.91-13.73-5.11-13.96-9.47.14-14.22,64.11-21.63,179.11-2.05,242.93,19.23,11.79,3.93,55.22,22.99,63.38,22.01,10.23-1.23,32.32-21.54,41.72-28.25C518.28,55.58,599.22,1.14,700.81,7.06c92.44,5.39,154.39,89.5,176.74,172.59,9.76,36.31,9.63,73.18,10.68,110.53,6.16,10.9,13.28-5.01,15.71-11.37,27.61-72.44,6.96-184.64-38.77-246.48-3.88-5.25-25.03-26.4-25.25-28.97-.13-1.49,1.33-3.35,1.97-3.35h302.25ZM348.82,204.34c-14.97.7-4.12,22.79-.74,30.03,39.61,84.77,130.97,173.51,203.82,231.06,109.88,86.81,280.53,191.05,421.32,207.46,39.85,4.65,74.1,7.32,103.26-23.3,35.74-37.51,3.47-54.28-19.99-82.81-18.22-22.16-38.35-47.3-54.79-70.68-53.98-76.72-95.59-193.31-211.11-182.37-9.53.9-28.57,8.26-18.51,19.9,4.32,5,32.62,7.81,41.2,10.13,98.88,26.68,124.34,163.73,186.2,237.28,4.59,5.46,29.91,28.63,28.39,34.06-7.36,6.33-21.14,5.63-30.63,5.25-93.78-3.75-223.91-67.52-305.29-113.89-120.32-68.55-231.56-167.17-317.57-275.58-6.03-7.6-14.48-27.07-25.56-26.55ZM295.63,965.89c-13.27,12.8-16.34,32.75-33.42,44.29-24.26,16.39-75.6,23.39-103.7,16.99-21.87-4.98-66.43-30.88-68.69-55.36-1.71-18.54,15.87-61.13,19.58-83.09,3-17.77-.6-37.27,13.96-50.21,18.5-16.44,42.12-20.94,57.46-45.2,21.14-33.43-6.47-22.39-25.03-28.64-22.52-7.59-27.76-58.19-26.02-78.03,1.35-15.36,10.41-28.88-3.53-42.15-6.21-5.91-17.6-6.42-19.22-16.41-4.53-27.98,30.49-67.05,52.22-81.64,46.09-30.96,91.56-30.96,85.96-100.78-1.31-16.38-12.93-38.54-5.72-52.83,6.36-12.62,18.73-24.27,24.97-39.2,12.22-29.24,7.25-61.58-16.31-83.45-20.69-19.2-14.67,9.46-15.76,21.43-1.85,20.43-11.12,46.9-23.6,63.38-7.27,9.6-27.37,19.16-29.09,30.86-1.59,10.86,12.61,33.31,16.29,44.87,19.45,61.08-30.2,59.79-65.5,85.53-31.63,23.07-74.09,86.72-58.18,126.58,6.97,17.47,26.53,20.39,28.89,42.4,3.23,30.12,3.54,60.83,20.82,87.55,2.83,4.38,16.2,17.19,16.25,19.33.27,9.86-31.26,18.65-39.75,27.28-14.77,15.01-16.15,53.82-20.81,74.73-7.44,33.43-29.37,72.51-7.02,103.96,39.25,55.22,94.95,66.26,159.11,52.44,49.76-10.72,64.31-33.53,93.8-71.6,4.22-5.44,22.57-25.92,11.43-31.39-7.12-3.5-33.63,12.82-39.4,18.39ZM496.14,939.72c.53,17.31-.67,34.79-.05,52.1.11,3.04,1.33,5.74,1.47,8.51.37,7.05-2,24.23,2.91,28.46s26.92,4.02,25.64-7.06l-.32-108.1c-8.3-12.61-20.21-8.34-31.58-3.66-12.99,5.34-28.63,11.85-20.54,28.7,6.09,12.69,20.2-1.34,22.47,1.05ZM629.66,1011.94c31.29-32.45,27.21-111.87-31.63-106.5-53.45,4.88-52.95,88.53,5.8,81.38,3.76-.46,6.23-2.28,9.61-3.23,1.42-.4,3.38-2.52,2.5,1.07-1.43,5.8-13.34,14.54-18.72,16.94s-23.02,4.8-25.18,6.9c-4.02,3.92-4.09,20.69,6.17,22.4,15.32,2.55,40.79-7.9,51.45-18.96ZM799.52,905.92c-23.2,1.95-39.16,16.84-35,41.3,1.21,7.14,11.15,17.6,10.96,18.68-.23,1.33-12.9,12.49-14.95,22.21-11.34,53.75,90.37,58.03,87.83,3.61-.6-12.9-7.58-19.82-17.12-27.21,26.79-30.01,7.25-61.87-31.72-58.6ZM663.67,1001.04c6.62,1.84,34.89,0,44.2,0,3.48,0,.37,14.09.72,17.82.4,4.31,1.61,9.73,6.45,10.66,2.72.52,12.9.53,15.62,0,10.71-2.07,3.95-22.72,7.06-27.16,2.17-3.11,9.45,2.4,10.82-9.14.31-2.65.48-11.87-.68-13.63-1.92-2.91-10.73-1.47-11.99-5.12l-.88-63.29c-12.12-7.38-29.09-7.35-38.39,4.42-7.72,9.77-31.29,50.43-36.3,62.08-2.7,6.27-5.18,20.97,3.39,23.35ZM1063.26,1004.29c-65.08,6.86-56.59,106.34,13.71,97.83,59.67-7.22,51.27-104.68-13.71-97.83Z" style="fill: #eb842d;"/>
  <path d="M732.82,1468.76h109.78v-159c0-.47,1.89-2.16,1.43-3.56h40.63c.15,0,2.14,1.99,2.14,2.14v160.42h68.43c-2.01-8.61-8.51-16.29-11.46-24.9-30.57-89.37,63.96-170.49,146.93-125.57,88.38,47.85,58.62,183.53-40.6,191.87-125.72,2.34-252.47-3.95-377.88,1.36-36.75,1.55-75.5-2.95-86.46,41.86-1.28,5.25-2.27,25.64-4.39,27.7-4.77,4.63-41.02,4.55-41.02-.39v-21.39c0-30.22,27.68-64.13,53.2-77.98,38.49-20.89,96.01-2.22,110.08-56.74,18.83-72.99-85.88-102.11-109.79-37.09-2.15,5.85-4.36,23.56-7.93,26.29-4.39,3.36-36.46,3.37-39.22-.56-6.04-91.4,100.29-141.13,169.7-81.32,30.21,26.03,40.77,75.85,27.52,113-2.97,8.33-9.66,15.47-11.08,23.85ZM1039.1,1350.74c-78.13,3.75-73.09,124.36,8.07,117.99,73.15-5.75,66.13-121.55-8.07-117.99Z" style="fill: #332d24;"/>
  <path d="M312.23,1468.76h52.75c.84-64.85-1.1-129.84-.06-194.7.06-3.72,1.48-7.22,1.55-11.28.22-12.09-2.32-25.04.27-36.09,2.74-2.75,36.67-2.72,40.19-.23l.18,280.89-8.57,2.84H93.33c-69.52-8.81-111.95-79.18-81.72-144.6,35.82-77.5,144.96-79.87,184.25-3.59,2.09,4.06,9.44,21.39,9.44,24.78v79.85c0,.15,1.99,2.14,2.14,2.14h63.44v-234.57c0-.67,2.17-6.43,2.84-7.14,2.63-2.79,28.77-2.99,33.48-2.09,1.56.3,5.03,2.46,5.03,3.53v240.28ZM162.53,1468.76v-66.31c0-8.05-7.62-23.57-12.87-29.9-47.11-56.82-135.12,6.86-93.82,71.02,6.7,10.41,26.38,25.19,38.97,25.19h67.72Z" style="fill: #332d24;"/>
  <path d="M1144.48,1910.43c-2.91,2.74-30.06,2.73-33.25.48-2.83-2-3.24-6.14-3.53-9.31-2.52-27.68,4.24-65.21-.01-91.25-1.45-8.88-10.14-8.88-17.68-9.41-8.55-.6-33.79-2.34-37.48,5.41l-3.96,101.56c-4.79,6.99-35.33,6.18-37.48-.95l-.34-199.43c5.78-91.93,130.74-90.82,137-1.42,4.4,62.83-3.49,130.7.01,194.07.01,2.68-1.5,8.57-3.29,10.25ZM1106.01,1760.74c1.57-1.57,1.64-5.23,1.82-7.44,1.07-12.75,1.08-35.86,0-48.59-2.86-33.35-47.81-35.39-55.26-5.26-2.93,11.86-2.93,38.41-1.87,51,.33,3.89.67,9.13,4.65,11.03s36.78,1.63,43.22,1.09c2.21-.19,5.87-.25,7.44-1.82Z" style="fill: #eb842d;"/>
  <path d="M243.3,1656.06c11.67,11.36,20.5,29.6,21.87,45.87,5.28,63.03-3.95,133.05.08,196.82-.85,9.09-2.59,12.7-12.11,13.56-5.96.54-25.58,1.67-27.6-5.33l-2.97-102.55c-3.6-4.38-36.84-4.11-43.7-3.48-2.68.24-5.65.18-7.75,2.22-3.72,3.61-1.15,22.04-1.39,28.56-.86,22.7.65,47.4-1.42,69.88-.64,6.95-1.93,9.78-9.31,10.66-5.93.7-26.04,1.18-29.02-3.83-3.1-5.2-1.86-50-1.73-59.72.61-46.74-2.13-102.86,1.44-148.28,4.3-54.7,73.82-83.09,113.61-44.37ZM170,1760.74c1.57,1.57,5.23,1.64,7.44,1.82,6.64.56,38.98.82,43.2-1.11s4.32-5.66,4.68-9.57c1.26-13.67,1.21-47.93-4.52-59.78-10.11-20.93-42.59-15.25-50.05,5.2-3.71,10.16-3.57,44.26-2.58,56,.19,2.21.25,5.87,1.82,7.44Z" style="fill: #eb842d;"/>
  <path d="M681.84,1910.46c-1.53-1.32-1.69-5.36-1.84-7.44-2.05-28.26,4.11-66.19-.02-92.66-.91-5.82-4.95-8.73-10.58-9.38-7.9-.92-27.81-.92-35.71,0-2.67.31-6.32,1.25-7.91,3.49-2.93,4.14-.98,51.83-1.26,61.48-.1,3.37-1.4,6.49-1.54,9.86-.32,7.78,3.07,33.66-5.21,36.14-4.1,1.23-25.82.77-29.49-1.32-6.39-3.62-3.29-19.21-3.68-26.27-2.4-43.39.3-87.42,0-131.2-.17-25.48-5.44-53.16,6.8-77.2,30.15-59.21,116.4-44.76,128.42,18.95l.12,209.43c-.59,3.08-4.83,7.27-7.84,7.84-4.14.79-27.77.42-30.27-1.74ZM649.86,1678.71c-20.75,1.49-25.63,17.91-26.88,35.97-.53,7.6-1.23,41.65,2.93,45.67,1.31,1.27,3.29,1.78,5.06,2.06,6.18.97,36.77,1.08,42.37-.21,4.8-1.1,6.21-4.38,6.75-8.94,1.25-10.63,1.13-46.01-1.54-55.55-3.37-12.05-16.32-19.89-28.69-19Z" style="fill: #eb842d;"/>
  <path d="M460.18,1641.62c1.51,1.52,3.02,11.76,3.23,14.6,2.37,32.24-1.9,67.29-.02,99.84,1,5.25,6.19,6.12,10.59,6.51,8.66.78,27.27.94,35.73-.04,8.05-.93,8.7-4.81,9.3-12.09,2.79-33.78-2.45-71.11.25-105.27,2.55-8.83,28.89-7.82,35.74-4.98,1.93.8,2.62,2.01,3.24,3.89l.7,257.53c4.23,14.31-32.35,12-36.52,9.3-8.3-5.36-3.73-21.45-3.6-29.18.34-20.09,1.54-42.9.26-62.9-.18-2.74-1.14-12.11-1.76-14.05-.81-2.57-12.77-3.61-16.13-3.83-9.03-.61-34.46-2.55-37.99,6.44-1.21,27.34,1.98,55.45.21,82.8-.4,6.2-.76,19.36-7.1,21.41-4.07,1.31-27.32,1.33-30.5-.68-2.2-1.39-2.22-5.42-2.43-7.9-2.23-26.32.2-58.6.12-85.68-.17-56.36-.18-113.91.03-170.96-.89-11.67,33.41-8.04,36.65-4.76Z" style="fill: #eb842d;"/>
  <path d="M43.48,1802.43c-5.01,1.49-1.16,93.65-5.3,104.5-3.75,8.31-35.67,7.49-37.91.03l.78-262.48,3.56-3.56c37.14-2.02,75.01-1.22,112.36-.41,6.68,2.19,4.98,23.94,2.74,29.98-2.04,5.51-9.61,9.31-14.93,9.31h-61.31c-.15,0-2.14,1.99-2.14,2.14v75.58c0,9.34,40.36,2,46.44,6.31s6.1,38.61-4.38,38.61c-8.08,0-34.47-1.62-39.92,0Z" style="fill: #eb842d;"/>
  <path d="M752.4,1638.79c7.17-1.28,31.43-2.8,33.13,6.11l.31,220.72c1.68,3.65,5.21,4.86,8.96,5.3,20.73,2.41,45.2-2.47,66.3.7,7.8,3.49,6.59,25.81,4.24,32.71-1.85,5.44-9.74,6.1-14.85,6.53-21.41,1.8-46.56-.48-68.54-.11-11.28.19-39.22,8.18-39.21-9.14l.03-252.49c.33-6.06,3.88-9.29,9.64-10.32Z" style="fill: #eb842d;"/>
  <path d="M404.19,1639.87c3.9.71,4.63,4.44,4.99,7.82.62,5.77,1.03,25.97-3.43,29.39s-30.68-.24-39.42,1.92c-10.57,2.62-5.64,14.08-5.56,21.42.67,57.12-.17,114.33-.95,171.42-.13,9.27,5.16,36.26-6.17,39.76-3.67,1.13-24,1.37-27.57.34-5.4-1.55-5.57-8.86-6.54-13.43.52-64.57-1.3-129.25-.25-193.82.08-5.04,4.74-26.31-4.92-26.31h-37.07c-.25,0-2.51-2.2-2.83-2.87-1.75-3.75-1.89-35.63,2.83-35.63h126.89Z" style="fill: #eb842d;"/>
  <path d="M995.86,1870.88c5.42,1.52,4.53,30.27,1.9,34.7-3.65,6.15-30.94,3.51-38.96,3.82-22.03.83-52.71,4.06-74.23,1.49-5.88-.7-5.92-3.99-6.4-9.28l.04-253.91c.33-8.63,6.56-8.83,13.51-9.31,8.4-.57,27.97-2.59,29.19,8l.03,216.72c-1,2.81,4.76,7.77,6.49,7.77h68.43Z" style="fill: #eb842d;"/>
  <path d="M428.71,1225.2c3.15-.93,31.52-.97,35.32-.25,2.84.54,4.57,2.03,4.99,4.99l.11,275.24c.11,4.51-3.92,7.02-7.99,7.69-4.55.74-31.91.65-34.27-1.21-1.18-.93-1.77-2.28-1.96-3.74l.67-280.17c.73-1.22,1.76-2.15,3.15-2.56Z" style="fill: #332d24;"/>
  <path d="M1034.7,1229.53c42.73-7.41,47.16,57.66,7.03,57.56-36.63-.09-39.1-52-7.03-57.56Z" style="fill: #332d24;"/>
  <path d="M792.33,1229.52c38.14-6.03,45.09,56.76,5.14,58.03-34.67,1.1-38.56-52.75-5.14-58.03Z" style="fill: #332d24;"/>
  <path d="M857.97,1229.52c30.6-3.36,42.72,42.43,13.69,55.12-39.94,17.47-56.24-50.45-13.69-55.12Z" style="fill: #332d24;"/>
  <path d="M799.42,977.09c19.44-4.41,28.36,25.38,11.89,30.44-26.96,8.27-30.37-26.25-11.89-30.44Z" style="fill: #eb842d;"/>
  <path d="M799.42,927.18c25.36-5.72,22.55,35.15-.66,25.71-11.26-4.58-12-22.86.66-25.71Z" style="fill: #eb842d;"/>
  <path d="M592.11,934.45c1.99-2.15,8.65-4.72,11.67-4.74,18.22-.08,23.25,35.64,0,35.69-15.13.04-19.9-22.08-11.68-30.96Z" style="fill: #eb842d;"/>
  <path d="M710,939.72v35.68c0,.77-.63,1.39-1.39,1.39h-21.42c-.5-2.19.51-3.35,1.33-5.08,2.23-4.69,14.55-25.84,17.43-29.62,1.24-1.62,1.48-2.91,4.05-2.37Z" style="fill: #eb842d;"/>
  <path d="M1064.71,1014.26c50.9-4.79,58.49,72.24,9.41,77.88-53.82,6.18-59.84-73.13-9.41-77.88ZM1075.7,1026.7c-8.34-1.49-20.41,1.09-29.23,0v51.34h14.26v-19.96c12.68-2.68,13.89,16.45,18.52,19.27,3.16,1.92,10.41.11,14.27.68-4.55-7.96-6.99-17.47-14.24-23.54-.93-2.95,2.03-1.88,3.54-3.47,7.48-7.81,4-22.33-7.13-24.31Z" style="fill: #eb842d;"/>
  <path d="M1060.72,1049.52v-12.85c18.7-3.95,17.29,15.96,0,12.85Z" style="fill: #eb842d;"/>
</svg>