<svg xmlns="http://www.w3.org/2000/svg" xmlns:xlink="http://www.w3.org/1999/xlink" width="1080" zoomAndPan="magnify" viewBox="0 0 810 1012.49997" height="1350" preserveAspectRatio="xMidYMid meet" version="1.0"><defs><clipPath id="7e7b2b02ee"><path d="M 106.296875 0 L 714.996094 0 L 714.996094 607 L 106.296875 607 Z M 106.296875 0 " clip-rule="nonzero"/></clipPath><clipPath id="eee479ebcc"><path d="M 641 866 L 714.996094 866 L 714.996094 1012 L 641 1012 Z M 641 866 " clip-rule="nonzero"/></clipPath><clipPath id="b76da5464d"><path d="M 330 866 L 403 866 L 403 1012 L 330 1012 Z M 330 866 " clip-rule="nonzero"/></clipPath><clipPath id="e1d89dd9d1"><path d="M 106.296875 867 L 171 867 L 171 1012 L 106.296875 1012 Z M 106.296875 867 " clip-rule="nonzero"/></clipPath></defs><g clip-path="url(#7e7b2b02ee)"><path fill="#dbe3c9" d="M 711.847656 0 C 715.480469 1.105469 713 13.8125 712.941406 16.941406 C 709.851562 181.554688 715.359375 346.492188 712.941406 511.136719 C 713.085938 540.3125 715.441406 571.800781 713.769531 600.902344 C 713.449219 606.441406 712.792969 606.21875 707.355469 606.5625 C 700.8125 606.980469 694.203125 605.808594 687.75 606.5625 C 496.445312 606.871094 304.863281 605.992188 113.730469 606.597656 C 112.4375 606.597656 106.5625 605.828125 106.5625 604.644531 L 106.5625 90.148438 C 106.5625 89.988281 107.292969 86.886719 108.363281 87.582031 C 131.324219 96.367188 156.625 96.976562 180.484375 102.964844 C 211.164062 110.664062 245.507812 126.355469 265.6875 151.277344 C 268.984375 155.351562 276.128906 167.882812 280.277344 169.183594 C 281.53125 169.578125 283.054688 169.765625 283.871094 168.476562 C 284.996094 166.6875 284.785156 152.820312 284.59375 149.710938 C 281.859375 105.691406 245.730469 84.347656 207.625 72.796875 C 191.226562 67.820312 170.59375 65.355469 155.183594 59.617188 C 147.917969 56.914062 147.796875 54.605469 155.257812 52.09375 C 189.171875 40.652344 250.011719 51.007812 283.773438 62.265625 C 290.011719 64.347656 312.988281 74.429688 317.304688 73.910156 C 322.714844 73.261719 334.402344 62.515625 339.375 58.964844 C 380.75 29.402344 423.570312 0.601562 477.316406 3.734375 C 526.21875 6.585938 558.992188 51.082031 570.816406 95.039062 C 575.980469 114.25 575.914062 133.753906 576.46875 153.515625 C 579.726562 159.28125 583.492188 150.863281 584.777344 147.5 C 599.386719 109.175781 588.460938 49.820312 564.269531 17.105469 C 562.214844 14.328125 551.027344 3.136719 550.910156 1.777344 C 550.839844 0.988281 551.613281 0.00390625 551.953125 0.00390625 L 711.851562 0.00390625 Z M 291.101562 108.101562 C 283.183594 108.472656 288.921875 120.160156 290.710938 123.988281 C 311.664062 168.835938 359.996094 215.78125 398.539062 246.226562 C 456.667969 292.152344 546.949219 347.300781 621.429688 355.980469 C 642.511719 358.441406 660.632812 359.855469 676.058594 343.65625 C 694.964844 323.8125 677.894531 314.9375 665.484375 299.847656 C 655.84375 288.121094 645.195312 274.824219 636.496094 262.453125 C 607.941406 221.867188 585.925781 160.1875 524.8125 165.972656 C 519.769531 166.449219 509.699219 170.34375 515.019531 176.5 C 517.304688 179.148438 532.277344 180.632812 536.816406 181.859375 C 589.128906 195.976562 602.597656 268.480469 635.324219 307.390625 C 637.75 310.277344 651.148438 322.535156 650.34375 325.410156 C 646.449219 328.757812 639.160156 328.386719 634.136719 328.1875 C 584.523438 326.203125 515.683594 292.464844 472.628906 267.933594 C 408.976562 231.667969 350.125 179.496094 304.625 122.144531 C 301.433594 118.121094 296.964844 107.824219 291.101562 108.097656 Z M 262.960938 510.988281 C 255.941406 517.761719 254.316406 528.316406 245.28125 534.417969 C 232.449219 543.089844 205.285156 546.792969 190.421875 543.40625 C 178.851562 540.773438 155.277344 527.070312 154.082031 514.121094 C 153.175781 504.3125 162.476562 481.78125 164.441406 470.164062 C 166.027344 460.761719 164.121094 450.445312 171.824219 443.601562 C 181.613281 434.902344 194.109375 432.523438 202.222656 419.6875 C 213.40625 402.003906 198.800781 407.84375 188.980469 404.535156 C 177.070312 400.519531 174.296875 373.753906 175.214844 363.257812 C 175.929688 355.128906 180.722656 347.976562 173.347656 340.957031 C 170.0625 337.832031 164.039062 337.5625 163.179688 332.277344 C 160.785156 317.472656 179.3125 296.804688 190.808594 289.085938 C 215.191406 272.707031 239.246094 272.707031 236.28125 235.769531 C 235.589844 227.105469 229.441406 215.378906 233.257812 207.820312 C 236.621094 201.144531 243.164062 194.980469 246.46875 187.082031 C 252.933594 171.613281 250.300781 154.503906 237.839844 142.933594 C 226.894531 132.777344 230.078125 147.9375 229.5 154.273438 C 228.523438 165.078125 223.617188 179.082031 217.015625 187.800781 C 213.167969 192.878906 202.535156 197.9375 201.625 204.128906 C 200.785156 209.875 208.296875 221.75 210.242188 227.867188 C 220.535156 260.179688 194.265625 259.496094 175.59375 273.113281 C 158.859375 285.320312 136.394531 318.992188 144.8125 340.078125 C 148.5 349.320312 158.847656 350.867188 160.097656 362.511719 C 161.804688 378.445312 161.96875 394.691406 171.113281 408.828125 C 172.609375 411.144531 179.683594 417.921875 179.707031 419.054688 C 179.851562 424.269531 163.171875 428.917969 158.679688 433.484375 C 150.867188 441.425781 150.136719 461.957031 147.671875 473.019531 C 143.734375 490.707031 132.132812 511.378906 143.957031 528.019531 C 164.722656 557.230469 194.1875 563.074219 228.128906 555.761719 C 254.457031 550.089844 262.152344 538.023438 277.753906 517.882812 C 279.988281 515.003906 289.695312 504.167969 283.800781 501.277344 C 280.035156 499.425781 266.007812 508.058594 262.957031 511.003906 Z M 369.039062 497.144531 C 369.320312 506.300781 368.683594 515.550781 369.011719 524.707031 C 369.070312 526.316406 369.714844 527.742188 369.789062 529.207031 C 369.984375 532.9375 368.730469 542.027344 371.328125 544.265625 C 373.925781 546.503906 385.570312 546.390625 384.894531 540.53125 L 384.726562 483.339844 C 380.332031 476.671875 374.03125 478.929688 368.019531 481.40625 C 361.144531 484.230469 352.871094 487.675781 357.152344 496.589844 C 360.375 503.300781 367.839844 495.878906 369.039062 497.144531 Z M 439.675781 535.351562 C 456.230469 518.183594 454.070312 476.167969 422.941406 479.007812 C 394.664062 481.589844 394.929688 525.84375 426.011719 522.0625 C 428 521.816406 429.304688 520.855469 431.09375 520.351562 C 431.847656 520.140625 432.882812 519.019531 432.417969 520.917969 C 431.660156 523.988281 425.359375 528.609375 422.515625 529.878906 C 419.667969 531.148438 410.335938 532.421875 409.191406 533.53125 C 407.066406 535.605469 407.027344 544.476562 412.457031 545.382812 C 420.5625 546.730469 434.035156 541.203125 439.675781 535.351562 Z M 529.539062 479.261719 C 517.265625 480.292969 508.820312 488.171875 511.019531 501.113281 C 511.660156 504.890625 516.921875 510.421875 516.820312 510.992188 C 516.699219 511.699219 509.996094 517.601562 508.910156 522.742188 C 502.910156 551.179688 556.71875 553.445312 555.375 524.652344 C 555.058594 517.828125 551.367188 514.167969 546.320312 510.257812 C 560.492188 494.382812 550.152344 477.527344 529.539062 479.257812 Z M 457.667969 529.585938 C 461.171875 530.558594 476.125 529.585938 481.050781 529.585938 C 482.890625 529.585938 481.246094 537.039062 481.433594 539.011719 C 481.644531 541.292969 482.285156 544.160156 484.84375 544.652344 C 486.285156 544.925781 491.667969 544.933594 493.109375 544.652344 C 498.773438 543.554688 495.199219 532.632812 496.84375 530.28125 C 497.992188 528.636719 501.84375 531.550781 502.566406 525.449219 C 502.730469 524.046875 502.820312 519.167969 502.207031 518.238281 C 501.191406 516.695312 496.53125 517.457031 495.863281 515.527344 L 495.398438 482.046875 C 488.988281 478.140625 480.007812 478.15625 475.089844 484.382812 C 471.003906 489.550781 458.535156 511.0625 455.886719 517.226562 C 454.457031 520.542969 453.144531 528.320312 457.679688 529.578125 Z M 669.066406 531.304688 C 634.636719 534.933594 639.125 587.5625 676.316406 583.058594 C 707.886719 579.238281 703.441406 527.679688 669.066406 531.304688 Z M 669.066406 531.304688 " fill-opacity="1" fill-rule="nonzero"/></g><path fill="#dbe3c9" d="M 494.25 777.023438 L 552.328125 777.023438 L 552.328125 692.90625 C 552.328125 692.660156 553.328125 691.765625 553.085938 691.023438 L 574.578125 691.023438 C 574.660156 691.023438 575.710938 692.078125 575.710938 692.15625 L 575.710938 777.023438 L 611.914062 777.023438 C 610.851562 772.46875 607.410156 768.40625 605.851562 763.851562 C 589.679688 716.570312 639.6875 673.65625 683.582031 697.421875 C 730.335938 722.734375 714.59375 794.515625 662.101562 798.925781 C 595.59375 800.164062 528.539062 796.835938 462.191406 799.644531 C 442.75 800.464844 422.25 798.085938 416.449219 821.792969 C 415.773438 824.570312 415.25 835.355469 414.128906 836.445312 C 411.605469 838.894531 392.425781 838.851562 392.425781 836.238281 L 392.425781 824.921875 C 392.425781 808.9375 407.070312 790.996094 420.570312 783.667969 C 440.933594 772.617188 471.363281 782.496094 478.808594 753.652344 C 488.769531 715.039062 433.375 699.632812 420.726562 734.03125 C 419.589844 737.125 418.417969 746.492188 416.53125 747.9375 C 414.207031 749.714844 397.242188 749.722656 395.78125 747.640625 C 392.585938 699.289062 448.839844 672.980469 485.558594 704.621094 C 501.539062 718.390625 507.128906 744.746094 500.117188 764.402344 C 498.546875 768.808594 495.007812 772.585938 494.257812 777.019531 Z M 656.285156 714.585938 C 614.949219 716.570312 617.617188 780.378906 660.550781 777.007812 C 699.25 773.964844 695.539062 712.703125 656.285156 714.585938 Z M 656.285156 714.585938 " fill-opacity="1" fill-rule="nonzero"/><path fill="#dbe3c9" d="M 271.746094 777.023438 L 299.652344 777.023438 C 300.09375 742.714844 299.070312 708.335938 299.621094 674.019531 C 299.652344 672.054688 300.402344 670.203125 300.4375 668.054688 C 300.554688 661.65625 299.210938 654.808594 300.582031 648.960938 C 302.03125 647.507812 319.980469 647.523438 321.84375 648.839844 L 321.9375 797.441406 L 317.40625 798.941406 L 155.9375 798.941406 C 119.160156 794.28125 96.714844 757.054688 112.707031 722.445312 C 131.65625 681.445312 189.394531 680.191406 210.179688 720.542969 C 211.285156 722.691406 215.175781 731.859375 215.175781 733.652344 L 215.175781 775.898438 C 215.175781 775.976562 216.226562 777.03125 216.308594 777.03125 L 249.867188 777.03125 L 249.867188 652.933594 C 249.867188 652.578125 251.015625 649.53125 251.371094 649.15625 C 252.761719 647.679688 266.589844 647.574219 269.082031 648.050781 C 269.910156 648.210938 271.746094 649.351562 271.746094 649.917969 L 271.746094 777.035156 Z M 192.546875 777.023438 L 192.546875 741.945312 C 192.546875 737.683594 188.515625 729.476562 185.738281 726.125 C 160.816406 696.066406 114.257812 729.753906 136.105469 763.699219 C 139.648438 769.207031 150.0625 777.023438 156.722656 777.023438 Z M 192.546875 777.023438 " fill-opacity="1" fill-rule="nonzero"/><g clip-path="url(#eee479ebcc)"><path fill="#dbe3c9" d="M 712.03125 1010.683594 C 710.492188 1012.132812 696.128906 1012.128906 694.441406 1010.9375 C 692.945312 1009.878906 692.730469 1007.6875 692.574219 1006.011719 C 691.242188 991.367188 694.816406 971.511719 692.570312 957.738281 C 691.804688 953.039062 687.207031 953.039062 683.214844 952.757812 C 678.691406 952.441406 665.339844 951.519531 663.386719 955.621094 L 661.292969 1009.347656 C 658.757812 1013.046875 642.601562 1012.617188 641.464844 1008.847656 L 641.285156 903.339844 C 644.34375 854.707031 710.453125 855.292969 713.761719 902.589844 C 716.089844 935.828125 711.917969 971.734375 713.769531 1005.261719 C 713.773438 1006.679688 712.976562 1009.792969 712.027344 1010.683594 Z M 691.679688 931.492188 C 692.511719 930.660156 692.546875 928.726562 692.644531 927.554688 C 693.210938 920.808594 693.214844 908.585938 692.644531 901.851562 C 691.132812 884.207031 667.351562 883.128906 663.410156 899.066406 C 661.859375 905.339844 661.859375 919.386719 662.421875 926.046875 C 662.59375 928.105469 662.773438 930.878906 664.878906 931.882812 C 666.984375 932.886719 684.339844 932.746094 687.746094 932.460938 C 688.914062 932.359375 690.851562 932.328125 691.679688 931.496094 Z M 691.679688 931.492188 " fill-opacity="1" fill-rule="nonzero"/></g><path fill="#dbe3c9" d="M 235.277344 876.113281 C 241.453125 882.121094 246.125 891.773438 246.847656 900.378906 C 249.640625 933.722656 244.757812 970.765625 246.890625 1004.503906 C 246.441406 1009.3125 245.519531 1011.222656 240.484375 1011.675781 C 237.332031 1011.964844 226.949219 1012.5625 225.882812 1008.859375 L 224.3125 954.605469 C 222.40625 952.289062 204.820312 952.429688 201.191406 952.765625 C 199.773438 952.890625 198.203125 952.859375 197.09375 953.9375 C 195.125 955.847656 196.484375 965.597656 196.355469 969.046875 C 195.902344 981.058594 196.699219 994.125 195.605469 1006.015625 C 195.265625 1009.695312 194.585938 1011.191406 190.679688 1011.65625 C 187.542969 1012.027344 176.90625 1012.28125 175.328125 1009.628906 C 173.6875 1006.878906 174.34375 983.179688 174.414062 978.035156 C 174.734375 953.308594 173.285156 923.621094 175.175781 899.589844 C 177.449219 870.652344 214.226562 855.632812 235.277344 876.117188 Z M 196.5 931.492188 C 197.332031 932.320312 199.265625 932.359375 200.4375 932.453125 C 203.949219 932.75 221.058594 932.886719 223.289062 931.867188 C 225.523438 930.847656 225.574219 928.871094 225.765625 926.804688 C 226.433594 919.574219 226.40625 901.449219 223.375 895.179688 C 218.027344 884.105469 200.84375 887.109375 196.898438 897.929688 C 194.933594 903.304688 195.007812 921.34375 195.53125 927.554688 C 195.632812 928.726562 195.664062 930.660156 196.496094 931.492188 Z M 196.5 931.492188 " fill-opacity="1" fill-rule="nonzero"/><path fill="#dbe3c9" d="M 467.28125 1010.699219 C 466.472656 1010 466.386719 1007.863281 466.308594 1006.761719 C 465.222656 991.8125 468.480469 971.746094 466.296875 957.742188 C 465.816406 954.664062 463.679688 953.125 460.699219 952.78125 C 456.519531 952.292969 445.988281 952.292969 441.808594 952.78125 C 440.394531 952.945312 438.464844 953.441406 437.621094 954.625 C 436.074219 956.816406 437.105469 982.046875 436.957031 987.152344 C 436.902344 988.933594 436.214844 990.585938 436.140625 992.367188 C 435.972656 996.484375 437.765625 1010.175781 433.386719 1011.488281 C 431.214844 1012.136719 419.726562 1011.894531 417.785156 1010.789062 C 414.402344 1008.875 416.042969 1000.625 415.835938 996.890625 C 414.566406 973.9375 415.996094 950.644531 415.835938 927.480469 C 415.746094 914 412.960938 899.359375 419.433594 886.640625 C 435.386719 855.316406 481.015625 862.960938 487.375 896.664062 L 487.4375 1007.460938 C 487.125 1009.089844 484.882812 1011.308594 483.289062 1011.609375 C 481.097656 1012.027344 468.597656 1011.832031 467.273438 1010.6875 Z M 450.363281 888.09375 C 439.382812 888.882812 436.804688 897.570312 436.140625 907.125 C 435.859375 911.144531 435.492188 929.160156 437.691406 931.285156 C 438.386719 931.957031 439.433594 932.226562 440.367188 932.375 C 443.636719 932.886719 459.820312 932.945312 462.785156 932.265625 C 465.324219 931.683594 466.070312 929.945312 466.355469 927.535156 C 467.015625 921.910156 466.953125 903.195312 465.539062 898.148438 C 463.757812 891.773438 456.90625 887.625 450.363281 888.09375 Z M 450.363281 888.09375 " fill-opacity="1" fill-rule="nonzero"/><g clip-path="url(#b76da5464d)"><path fill="#dbe3c9" d="M 350.015625 868.472656 C 350.8125 869.277344 351.613281 874.695312 351.722656 876.195312 C 352.976562 893.253906 350.71875 911.796875 351.714844 929.015625 C 352.242188 931.792969 354.988281 932.253906 357.316406 932.460938 C 361.898438 932.871094 371.742188 932.957031 376.21875 932.4375 C 380.476562 931.945312 380.820312 929.894531 381.136719 926.042969 C 382.613281 908.171875 379.84375 888.421875 381.269531 870.351562 C 382.621094 865.679688 396.554688 866.214844 400.179688 867.714844 C 401.199219 868.140625 401.5625 868.78125 401.890625 869.773438 L 402.261719 1006.015625 C 404.5 1013.585938 385.148438 1012.363281 382.941406 1010.9375 C 378.550781 1008.101562 380.96875 999.589844 381.039062 995.5 C 381.21875 984.871094 381.851562 972.804688 381.175781 962.222656 C 381.078125 960.773438 380.570312 955.816406 380.242188 954.789062 C 379.816406 953.429688 373.488281 952.878906 371.710938 952.765625 C 366.933594 952.441406 353.480469 951.414062 351.613281 956.171875 C 350.972656 970.636719 352.660156 985.507812 351.722656 999.976562 C 351.511719 1003.253906 351.320312 1010.21875 347.96875 1011.300781 C 345.8125 1011.996094 333.515625 1012.003906 331.832031 1010.941406 C 330.667969 1010.207031 330.65625 1008.074219 330.546875 1006.761719 C 329.367188 992.839844 330.652344 975.761719 330.609375 961.433594 C 330.519531 931.617188 330.515625 901.171875 330.625 870.992188 C 330.15625 864.816406 348.300781 866.738281 350.015625 868.472656 Z M 350.015625 868.472656 " fill-opacity="1" fill-rule="nonzero"/></g><g clip-path="url(#e1d89dd9d1)"><path fill="#dbe3c9" d="M 129.566406 953.546875 C 126.914062 954.335938 128.953125 1003.089844 126.761719 1008.832031 C 124.777344 1013.226562 107.890625 1012.792969 106.707031 1008.847656 L 107.121094 869.984375 L 109.003906 868.101562 C 128.652344 867.035156 148.6875 867.457031 168.445312 867.886719 C 171.980469 869.042969 171.078125 880.550781 169.894531 883.746094 C 168.816406 886.660156 164.8125 888.671875 161.996094 888.671875 L 129.5625 888.671875 C 129.480469 888.671875 128.429688 889.722656 128.429688 889.804688 L 128.429688 929.789062 C 128.429688 934.730469 149.78125 930.847656 152.996094 933.125 C 156.214844 935.40625 156.222656 953.550781 150.679688 953.550781 C 146.40625 953.550781 132.445312 952.695312 129.5625 953.550781 Z M 129.566406 953.546875 " fill-opacity="1" fill-rule="nonzero"/></g><path fill="#dbe3c9" d="M 504.609375 866.976562 C 508.402344 866.296875 521.238281 865.496094 522.136719 870.207031 L 522.300781 986.976562 C 523.1875 988.90625 525.054688 989.546875 527.039062 989.78125 C 538.007812 991.054688 550.953125 988.472656 562.117188 990.152344 C 566.242188 991.996094 565.601562 1003.804688 564.359375 1007.457031 C 563.378906 1010.332031 559.207031 1010.683594 556.503906 1010.910156 C 545.175781 1011.863281 531.871094 1010.65625 520.242188 1010.851562 C 514.273438 1010.953125 499.492188 1015.179688 499.5 1006.015625 L 499.515625 872.441406 C 499.6875 869.234375 501.566406 867.527344 504.613281 866.980469 Z M 504.609375 866.976562 " fill-opacity="1" fill-rule="nonzero"/><path fill="#dbe3c9" d="M 320.394531 867.546875 C 322.457031 867.921875 322.84375 869.894531 323.035156 871.683594 C 323.363281 874.738281 323.578125 885.421875 321.21875 887.234375 C 318.859375 889.042969 304.988281 887.105469 300.363281 888.25 C 294.773438 889.632812 297.382812 895.695312 297.421875 899.582031 C 297.777344 929.796875 297.332031 960.066406 296.921875 990.265625 C 296.851562 995.171875 299.652344 1009.449219 293.65625 1011.300781 C 291.714844 1011.898438 280.960938 1012.027344 279.070312 1011.480469 C 276.214844 1010.660156 276.125 1006.792969 275.613281 1004.375 C 275.886719 970.21875 274.921875 936 275.480469 901.839844 C 275.523438 899.171875 277.988281 887.921875 272.875 887.921875 L 253.265625 887.921875 C 253.132812 887.921875 251.9375 886.757812 251.769531 886.402344 C 250.84375 884.417969 250.769531 867.550781 253.265625 867.550781 L 320.394531 867.550781 Z M 320.394531 867.546875 " fill-opacity="1" fill-rule="nonzero"/><path fill="#dbe3c9" d="M 633.40625 989.757812 C 636.273438 990.5625 635.804688 1005.773438 634.414062 1008.117188 C 632.480469 1011.371094 618.042969 1009.972656 613.800781 1010.136719 C 602.148438 1010.578125 585.917969 1012.285156 574.53125 1010.925781 C 571.421875 1010.554688 571.398438 1008.816406 571.144531 1006.015625 L 571.167969 871.691406 C 571.339844 867.125 574.636719 867.019531 578.3125 866.765625 C 582.757812 866.460938 593.113281 865.394531 593.757812 870.996094 L 593.773438 985.648438 C 593.242188 987.136719 596.289062 989.757812 597.207031 989.757812 Z M 633.40625 989.757812 " fill-opacity="1" fill-rule="nonzero"/><path fill="#dbe3c9" d="M 333.367188 648.171875 C 335.03125 647.679688 350.042969 647.660156 352.050781 648.039062 C 353.554688 648.324219 354.46875 649.113281 354.691406 650.679688 L 354.75 796.292969 C 354.808594 798.675781 352.675781 800.003906 350.523438 800.359375 C 348.117188 800.75 333.640625 800.703125 332.394531 799.71875 C 331.769531 799.226562 331.457031 798.511719 331.355469 797.742188 L 331.710938 649.523438 C 332.097656 648.875 332.640625 648.382812 333.375 648.167969 Z M 333.367188 648.171875 " fill-opacity="1" fill-rule="nonzero"/><path fill="#dbe3c9" d="M 653.957031 650.464844 C 676.5625 646.542969 678.90625 680.96875 657.675781 680.914062 C 638.296875 680.867188 636.988281 653.40625 653.957031 650.464844 Z M 653.957031 650.464844 " fill-opacity="1" fill-rule="nonzero"/><path fill="#dbe3c9" d="M 525.734375 650.457031 C 545.910156 647.269531 549.585938 680.484375 528.453125 681.15625 C 510.109375 681.738281 508.054688 653.25 525.734375 650.457031 Z M 525.734375 650.457031 " fill-opacity="1" fill-rule="nonzero"/><path fill="#dbe3c9" d="M 560.460938 650.457031 C 576.648438 648.679688 583.058594 672.90625 567.703125 679.617188 C 546.574219 688.859375 537.949219 652.929688 560.460938 650.457031 Z M 560.460938 650.457031 " fill-opacity="1" fill-rule="nonzero"/><path fill="#dbe3c9" d="M 529.484375 516.914062 C 539.769531 514.582031 544.488281 530.339844 535.773438 533.019531 C 521.511719 537.394531 519.707031 519.128906 529.484375 516.914062 Z M 529.484375 516.914062 " fill-opacity="1" fill-rule="nonzero"/><path fill="#dbe3c9" d="M 529.484375 490.511719 C 542.902344 487.484375 541.414062 509.105469 529.136719 504.113281 C 523.179688 501.6875 522.785156 492.019531 529.484375 490.511719 Z M 529.484375 490.511719 " fill-opacity="1" fill-rule="nonzero"/><path fill="#dbe3c9" d="M 419.808594 494.355469 C 420.863281 493.21875 424.386719 491.859375 425.984375 491.847656 C 435.625 491.804688 438.285156 510.703125 425.984375 510.730469 C 417.980469 510.75 415.457031 499.046875 419.804688 494.351562 Z M 419.808594 494.355469 " fill-opacity="1" fill-rule="nonzero"/><path fill="#dbe3c9" d="M 482.179688 497.144531 L 482.179688 516.019531 C 482.179688 516.425781 481.84375 516.753906 481.441406 516.753906 L 470.109375 516.753906 C 469.847656 515.597656 470.378906 514.984375 470.816406 514.066406 C 471.996094 511.585938 478.511719 500.398438 480.035156 498.398438 C 480.691406 497.539062 480.820312 496.859375 482.179688 497.144531 Z M 482.179688 497.144531 " fill-opacity="1" fill-rule="nonzero"/><path fill="#dbe3c9" d="M 669.832031 536.578125 C 696.761719 534.042969 700.773438 574.796875 674.808594 577.78125 C 646.335938 581.050781 643.152344 539.089844 669.832031 536.578125 Z M 675.644531 543.160156 C 671.234375 542.371094 664.847656 543.734375 660.183594 543.160156 L 660.183594 570.320312 L 667.726562 570.320312 L 667.726562 559.761719 C 674.433594 558.34375 675.074219 568.464844 677.523438 569.953125 C 679.195312 570.972656 683.03125 570.011719 685.074219 570.316406 C 682.667969 566.105469 681.375 561.074219 677.539062 557.859375 C 677.046875 556.300781 678.613281 556.867188 679.414062 556.027344 C 683.371094 551.894531 681.527344 544.210938 675.640625 543.164062 Z M 675.644531 543.160156 " fill-opacity="1" fill-rule="nonzero"/><path fill="#dbe3c9" d="M 667.722656 555.230469 L 667.722656 548.433594 C 677.613281 546.34375 676.867188 556.878906 667.722656 555.230469 Z M 667.722656 555.230469 " fill-opacity="1" fill-rule="nonzero"/></svg>