<?xml version="1.0" encoding="utf-8"?>
<!-- Generator: Adobe Illustrator 30.0.0, SVG Export Plug-In . SVG Version: 9.03 Build 0)  -->
<svg version="1.0" id="Layer_1" xmlns="http://www.w3.org/2000/svg" xmlns:xlink="http://www.w3.org/1999/xlink" x="0px" y="0px"
	 viewBox="0 0 1080 1080" style="enable-background:new 0 0 1080 1080;" xml:space="preserve">
<style type="text/css">
	.st0{clip-path:url(#SVGID_00000066511631413299033530000017766141001193873323_);}
	.st1{fill:#E07B37;}
	.st2{clip-path:url(#SVGID_00000094587562400821296380000004744936355114399912_);}
	.st3{clip-path:url(#SVGID_00000103982351303230460390000003366409933644375739_);}
	.st4{fill:#69482D;}
	.st5{clip-path:url(#SVGID_00000143616173467208675240000001248258951144938908_);}
	.st6{clip-path:url(#SVGID_00000070797368545780714820000006118562398066614694_);}
	.st7{clip-path:url(#SVGID_00000142176282739680720930000007152658826829936826_);}
	.st8{fill:none;stroke:#231F20;stroke-width:0.241;stroke-miterlimit:2.4098;}
	.st9{clip-path:url(#SVGID_00000080923920954079908340000005253240576807142071_);}
	.st10{clip-path:url(#SVGID_00000096060716665837854850000017923549330985556390_);}
</style>
<g transform="matrix(1, 0, 0, 1, 0, 99)">
	<g>
		<g>
			<g>
				<defs>
					<rect id="SVGID_1_" y="34.2" width="194.7" height="346.8"/>
				</defs>
				<clipPath id="SVGID_00000016765967794292895680000008389727923733978753_">
					<use xlink:href="#SVGID_1_"  style="overflow:visible;"/>
				</clipPath>
				<g style="clip-path:url(#SVGID_00000016765967794292895680000008389727923733978753_);">
					<path class="st1" d="M14.8,271.5h37.7c7.2,0,13.2,5.5,14,12.6c2.1,18.7,10,30.4,30.7,30.4c24.4,0,30.7-16.8,31.3-39.1
						c0.5-19-14.6-35-33.6-35.3C32.9,239,0,191.7,0,131.4c0-54,43.9-97.1,97.2-97.1c58,0,91.2,39.9,96.5,93.3
						c0.8,8.3-5.7,15.5-14.1,15.5H142c-7.2,0-13.2-5.5-14-12.6c-2.1-18.7-10-30.4-30.7-30.4c-24.4,0-30.7,16.8-31.3,39.1
						c-0.5,19,14.5,35,33.6,35.3c58.2,1,90.8,42.7,94.6,97.7c5,71.7-48.2,120.1-118.9,106.1c-44.4-8.8-69.9-44.9-74.5-91.1
						C-0.1,278.7,6.4,271.5,14.8,271.5L14.8,271.5z"/>
				</g>
			</g>
			<g>
				<defs>
					<rect id="SVGID_00000045612763705649730260000001875449353398270603_" x="212" y="34.2" width="477.3" height="346.8"/>
				</defs>
				<clipPath id="SVGID_00000014619856115489177450000005354093945746298784_">
					<use xlink:href="#SVGID_00000045612763705649730260000001875449353398270603_"  style="overflow:visible;"/>
				</clipPath>
				<g style="clip-path:url(#SVGID_00000014619856115489177450000005354093945746298784_);">
					<path class="st1" d="M676.2,380.3H378.9c-20.4,0-37-16.5-37-36.9v-93c0-5.6-4.6-10.2-10.2-10.2h-42.4
						c-5.6,0-10.2,4.6-10.2,10.2v119.8c0,5.6-4.6,10.2-10.2,10.2h-45.5c-5.6,0-10.2-4.6-10.2-10.2V44.5c0-5.6,4.6-10.2,10.2-10.2
						H269c5.6,0,10.2,4.6,10.2,10.2v119.8c0,5.6,4.6,10.2,10.2,10.2h42.4c5.6,0,10.2-4.5,10.2-10.2V44.5c0-5.6,4.6-10.2,10.2-10.2
						h45.5c5.6,0,10.2,4.6,10.2,10.2v234c0,19.9,16.2,36,36.1,36h232.3c6.8,0,12.3,5.5,12.3,12.3V368
						C688.5,374.8,683,380.3,676.2,380.3z M557.6,295.7c-72.1,0-131-58.7-131-130.7c0-72,58.8-130.7,131-130.7s131,58.7,131,130.7
						S630.5,295.7,557.6,295.7z M559,230c35.4-0.7,63.7-30.2,63.7-65s-29-65-65.1-65c-36.1,0-64.4,29-64.3,65.1
						C493.3,201.1,522.9,230.7,559,230z"/>
				</g>
			</g>
			<g>
				<defs>
					<rect id="SVGID_00000013913697224172391450000002564601510685746822_" x="706.7" y="34.2" width="196" height="346.8"/>
				</defs>
				<clipPath id="SVGID_00000075883410037798807390000005298355410629173386_">
					<use xlink:href="#SVGID_00000013913697224172391450000002564601510685746822_"  style="overflow:visible;"/>
				</clipPath>
				<g style="clip-path:url(#SVGID_00000075883410037798807390000005298355410629173386_);">
					<path class="st4" d="M762.1,380.3h-43.6c-6.1,0-11.1-5-11.1-11.1V45.4c0-6.1,5-11.1,11.1-11.1h86.1c53.3,0,97.2,43.1,97.2,97.1
						v0.6c0,59.5-48.8,108.2-108.4,108.2h-9.1c-6.1,0-11.1,5-11.1,11.1v117.9C773.2,375.3,768.3,380.3,762.1,380.3L762.1,380.3z
						 M792.4,174.4c32.4,0,51-25.3,40.3-55.8c-4-11.5-12.4-18.5-28.1-18.5h-20.3c-6.1,0-11.1,5-11.1,11.1v52.2
						c0,6.1,5,11.1,11.1,11.1H792.4z"/>
				</g>
			</g>
			<g>
				<defs>
					<rect id="SVGID_00000035493221508071373650000016283367652803957896_" x="1.3" y="407.7" width="345.3" height="411.6"/>
				</defs>
				<clipPath id="SVGID_00000073705655277522818730000004320004614636342427_">
					<use xlink:href="#SVGID_00000035493221508071373650000016283367652803957896_"  style="overflow:visible;"/>
				</clipPath>
				<g style="clip-path:url(#SVGID_00000073705655277522818730000004320004614636342427_);">
					<path class="st4" d="M331.7,819.1h-48.8c-8.1,0-14.7-6.6-14.7-14.7v-60.6c0-16.7-23.5-20.5-28.7-4.6l-22.9,69.7
						c-2,6-7.6,10.1-14,10.1h-56.9c-6.4,0-12-4.1-14-10.1l-22.9-69.7c-5.2-15.9-28.7-12.1-28.7,4.6v60.6c0,8.1-6.6,14.7-14.7,14.7
						H16.5c-8.1,0-14.7-6.6-14.7-14.7V422.8c0-8.1,6.6-14.7,14.7-14.7h54.7c6.4,0,12,4.1,14,10.1l74.9,226.5
						c4.5,13.5,23.5,13.5,28,0L263,418.2c2-6,7.6-10.1,14-10.1h54.7c8.1,0,14.7,6.6,14.7,14.7v381.6
						C346.4,812.5,339.8,819.1,331.7,819.1z"/>
				</g>
			</g>
			<g>
				<defs>
					<rect id="SVGID_00000132803754126478093370000009828620894875530408_" x="368" y="407.7" width="541.2" height="411.6"/>
				</defs>
				<clipPath id="SVGID_00000164491202384830289980000001087569302965932978_">
					<use xlink:href="#SVGID_00000132803754126478093370000009828620894875530408_"  style="overflow:visible;"/>
				</clipPath>
				<g style="clip-path:url(#SVGID_00000164491202384830289980000001087569302965932978_);">
					<path class="st1" d="M622.2,807.3V500.4c0-7.9-6.4-14.3-14.3-14.3H383.1c-7.9,0-14.3-6.4-14.3-14.3v-49.6
						c0-7.9,6.4-14.3,14.3-14.3h511.7c7.9,0,14.3,6.4,14.3,14.3v49.6c0,7.9-6.4,14.3-14.3,14.3H714.7c-7.9,0-14.3,6.4-14.3,14.3
						v306.9c0,6.5-5.3,11.8-11.8,11.8H634C627.5,819.1,622.2,813.8,622.2,807.3z M599.8,624.7c0-63-50.3-113.4-112.1-115.3
						c-65.3-1.9-119,51.2-119,116.5v181.4c0,6.5,5.3,11.8,11.8,11.8h54.7c6.5,0,11.8-5.3,11.8-11.8v-41.6c0-6.5,5.3-11.8,11.8-11.8
						h50c6.5,0,11.8,5.3,11.8,11.8v41.6c0,6.5,5.3,11.8,11.8,11.8h55.6c6.5,0,11.8-5.3,11.8-11.8L599.8,624.7L599.8,624.7z
						 M463.5,675.9c-9.1,0-16.4-7.3-16.4-16.4v-34.7c0-20.5,16.8-37.2,37.3-37.2c20.5,0,36.3,16.7,36.3,37.2v34.7
						c0,9.1-7.4,16.4-16.4,16.4H463.5z M898.6,740.9h-86.2c-5.8,0-10.5-4.7-10.5-10.5v-16.3c0-5.8,4.7-10.5,10.5-10.5h86.2
						c5.8,0,10.5-4.7,10.5-10.5v-58.1c0-5.8-4.7-10.5-10.5-10.5h-86.2c-5.8,0-10.5-4.7-10.5-10.5V598c0-5.8,4.7-10.5,10.5-10.5h86.2
						c5.8,0,10.5-4.7,10.5-10.5v-57.2c0-5.8-4.7-10.5-10.5-10.5H723.8c0,0,0,0,0,0V819c0,0,0,0,0,0h174.9c5.8,0,10.5-4.7,10.5-10.5
						v-57.2C909.1,745.6,904.4,740.9,898.6,740.9L898.6,740.9z"/>
				</g>
			</g>
			<g>
				<defs>
					<rect id="SVGID_00000057149725219507266930000015156335112647515264_" x="365.3" y="403.7" width="543.9" height="415.6"/>
				</defs>
				<clipPath id="SVGID_00000108998369355252689660000002625277147398305945_">
					<use xlink:href="#SVGID_00000057149725219507266930000015156335112647515264_"  style="overflow:visible;"/>
				</clipPath>
				<g style="clip-path:url(#SVGID_00000108998369355252689660000002625277147398305945_);">
					<path class="st8" d="M622.2,807.3V500.4c0-7.9-6.4-14.3-14.3-14.3H383.1c-7.9,0-14.3-6.4-14.3-14.3v-49.6
						c0-7.9,6.4-14.3,14.3-14.3h511.7c7.9,0,14.3,6.4,14.3,14.3v49.6c0,7.9-6.4,14.3-14.3,14.3H714.7c-7.9,0-14.3,6.4-14.3,14.3
						v306.9c0,6.5-5.3,11.8-11.8,11.8H634C627.5,819.1,622.2,813.8,622.2,807.3z M599.8,624.7c0-63-50.3-113.4-112.1-115.3
						c-65.3-1.9-119,51.2-119,116.5v181.4c0,6.5,5.3,11.8,11.8,11.8h54.7c6.5,0,11.8-5.3,11.8-11.8v-41.6c0-6.5,5.3-11.8,11.8-11.8
						h50c6.5,0,11.8,5.3,11.8,11.8v41.6c0,6.5,5.3,11.8,11.8,11.8h55.6c6.5,0,11.8-5.3,11.8-11.8L599.8,624.7L599.8,624.7z
						 M463.5,675.9c-9.1,0-16.4-7.3-16.4-16.4v-34.7c0-20.5,16.8-37.2,37.3-37.2c20.5,0,36.3,16.7,36.3,37.2v34.7
						c0,9.1-7.4,16.4-16.4,16.4H463.5z M898.6,740.9h-86.2c-5.8,0-10.5-4.7-10.5-10.5v-16.3c0-5.8,4.7-10.5,10.5-10.5h86.2
						c5.8,0,10.5-4.7,10.5-10.5v-58.1c0-5.8-4.7-10.5-10.5-10.5h-86.2c-5.8,0-10.5-4.7-10.5-10.5V598c0-5.8,4.7-10.5,10.5-10.5h86.2
						c5.8,0,10.5-4.7,10.5-10.5v-57.2c0-5.8-4.7-10.5-10.5-10.5H723.8c0,0,0,0,0,0V819c0,0,0,0,0,0h174.9c5.8,0,10.5-4.7,10.5-10.5
						v-57.2C909.1,745.6,904.4,740.9,898.6,740.9L898.6,740.9z"/>
				</g>
			</g>
			<g>
				<defs>
					<rect id="SVGID_00000072240573028107996000000006721311062654872745_" x="945.3" y="689" width="134.7" height="158.9"/>
				</defs>
				<clipPath id="SVGID_00000183966245530904566020000018299081837726860427_">
					<use xlink:href="#SVGID_00000072240573028107996000000006721311062654872745_"  style="overflow:visible;"/>
				</clipPath>
				<g style="clip-path:url(#SVGID_00000183966245530904566020000018299081837726860427_);">
					<g transform="matrix(1, 0, 0, 1, 709, 492)">
						<g>
							<defs>
								<rect id="SVGID_00000123407816908704733690000016454971381833882289_" x="236.3" y="197" width="134.7" height="160"/>
							</defs>
							<clipPath id="SVGID_00000099652021822877936870000000269719828620334754_">
								<use xlink:href="#SVGID_00000123407816908704733690000016454971381833882289_"  style="overflow:visible;"/>
							</clipPath>
							<g style="clip-path:url(#SVGID_00000099652021822877936870000000269719828620334754_);">
								<g>
									<g transform="translate(0.220769, 94.45176)">
										<g>
											<path class="st4" d="M297.3,139l35.5,73.3c1.5,3,2.2,5.2,2.2,6.7c0,3.2-2.5,6-7.6,8.5c-3,1.5-5.3,2.2-7,2.2
												c-1.7,0-3.1-0.4-4.2-1.2c-1.1-0.8-1.9-1.6-2.4-2.5c-0.5-0.9-1.2-2.2-2-4l-6.8-14.2h-36.4l-6.8,14.2c-0.9,1.8-1.6,3-2,3.8
												c-0.5,0.8-1.3,1.6-2.4,2.4c-1.1,0.8-2.5,1.2-4.2,1.2c-1.7,0-4.1-0.7-7-2.2c-5.1-2.5-7.6-5.3-7.6-8.4
												c0-1.5,0.7-3.7,2.2-6.7l35.5-73.5c1-2,2.4-3.6,4.4-4.9c2-1.2,4-1.9,6.2-1.9C291.5,132.1,295,134.4,297.3,139z
												 M286.6,170.5l-8.7,18h17.5L286.6,170.5z"/>
										</g>
									</g>
								</g>
								<g>
									<g transform="translate(75.63758, 94.45176)">
										<g>
											<path class="st4" d="M266.8,143.7c0-2,0.1-3.5,0.2-4.5c0.1-1,0.6-2.2,1.3-3.5c1.2-2.4,4.6-3.6,10.2-3.6
												c6.1,0,9.8,1.6,10.9,4.9c0.4,1.5,0.6,3.8,0.6,6.8v73.1c0,2.1-0.1,3.6-0.2,4.6c-0.1,1-0.5,2.1-1.2,3.4
												c-1.2,2.4-4.7,3.5-10.2,3.5c-6.1,0-9.7-1.7-10.8-5c-0.5-1.4-0.8-3.6-0.8-6.7V143.7z"/>
										</g>
									</g>
								</g>
							</g>
						</g>
					</g>
				</g>
			</g>
		</g>
	</g>
</g>
</svg>
