<svg xmlns="http://www.w3.org/2000/svg" xmlns:xlink="http://www.w3.org/1999/xlink" width="1080" zoomAndPan="magnify" viewBox="0 0 810 1012.49997" height="1350" preserveAspectRatio="xMidYMid meet" version="1.0"><defs><clipPath id="7dedb6bb40"><path d="M 0.199219 228 L 146.152344 228 L 146.152344 487.945312 L 0.199219 487.945312 Z M 0.199219 228 " clip-rule="nonzero"/></clipPath><clipPath id="4c967c8677"><path d="M 160 228 L 516.917969 228 L 516.917969 487.945312 L 160 487.945312 Z M 160 228 " clip-rule="nonzero"/></clipPath><clipPath id="045dd2f5e8"><path d="M 530 228 L 676.890625 228 L 676.890625 487.945312 L 530 487.945312 Z M 530 228 " clip-rule="nonzero"/></clipPath><clipPath id="3e6a7f6d0a"><path d="M 1.175781 508 L 260 508 L 260 816.507812 L 1.175781 816.507812 Z M 1.175781 508 " clip-rule="nonzero"/></clipPath><clipPath id="49ec20d3e7"><path d="M 276.0625 508 L 681.761719 508 L 681.761719 816.507812 L 276.0625 816.507812 Z M 276.0625 508 " clip-rule="nonzero"/></clipPath><clipPath id="1b83f2ba74"><path d="M 275 507 L 681.761719 507 L 681.761719 816.507812 L 275 816.507812 Z M 275 507 " clip-rule="nonzero"/></clipPath></defs><g clip-path="url(#7dedb6bb40)"><path fill="#dbe3c9" d="M 11.292969 405.863281 L 39.554688 405.863281 C 44.953125 405.863281 49.449219 409.984375 50.050781 415.308594 C 51.625 429.324219 57.546875 438.097656 73.0625 438.097656 C 91.355469 438.097656 96.078125 425.503906 96.527344 408.785156 C 96.902344 394.542969 85.582031 382.546875 71.339844 382.324219 C 24.863281 381.5 0.199219 346.042969 0.199219 300.839844 C 0.199219 260.359375 33.109375 228.050781 73.0625 228.050781 C 116.542969 228.050781 141.429688 257.960938 145.402344 297.992188 C 146.003906 304.210938 141.128906 309.609375 134.832031 309.609375 L 106.648438 309.609375 C 101.25 309.609375 96.753906 305.488281 96.152344 300.164062 C 94.578125 286.144531 88.65625 277.375 73.140625 277.375 C 54.847656 277.375 50.125 289.96875 49.675781 306.6875 C 49.300781 320.929688 60.546875 332.921875 74.863281 333.148438 C 118.492188 333.898438 142.929688 365.15625 145.777344 406.386719 C 149.527344 460.136719 109.644531 496.417969 56.648438 485.921875 C 23.363281 479.324219 4.246094 452.265625 0.800781 417.632812 C 0.125 411.257812 4.996094 405.863281 11.292969 405.863281 Z M 11.292969 405.863281 " fill-opacity="1" fill-rule="nonzero"/></g><g clip-path="url(#4c967c8677)"><path fill="#dbe3c9" d="M 507.097656 487.421875 L 284.234375 487.421875 C 268.941406 487.421875 256.5 475.054688 256.5 459.761719 L 256.5 390.046875 C 256.5 385.847656 253.050781 382.398438 248.851562 382.398438 L 217.066406 382.398438 C 212.871094 382.398438 209.421875 385.847656 209.421875 390.046875 L 209.421875 479.851562 C 209.421875 484.046875 205.972656 487.496094 201.773438 487.496094 L 167.667969 487.496094 C 163.46875 487.496094 160.019531 484.046875 160.019531 479.851562 L 160.019531 235.695312 C 160.019531 231.5 163.46875 228.050781 167.667969 228.050781 L 201.851562 228.050781 C 206.046875 228.050781 209.496094 231.5 209.496094 235.695312 L 209.496094 325.503906 C 209.496094 329.699219 212.945312 333.148438 217.144531 333.148438 L 248.925781 333.148438 C 253.125 333.148438 256.574219 329.773438 256.574219 325.503906 L 256.574219 235.695312 C 256.574219 231.5 260.023438 228.050781 264.21875 228.050781 L 298.328125 228.050781 C 302.527344 228.050781 305.972656 231.5 305.972656 235.695312 L 305.972656 411.109375 C 305.972656 426.027344 318.117188 438.097656 333.035156 438.097656 L 507.175781 438.097656 C 512.273438 438.097656 516.394531 442.21875 516.394531 447.316406 L 516.394531 478.203125 C 516.320312 483.300781 512.195312 487.421875 507.097656 487.421875 Z M 418.195312 424.003906 C 364.144531 424.003906 319.992188 380 319.992188 326.027344 C 319.992188 272.054688 364.070312 228.050781 418.195312 228.050781 C 472.316406 228.050781 516.394531 272.054688 516.394531 326.027344 C 516.394531 380 472.839844 424.003906 418.195312 424.003906 Z M 419.242188 374.753906 C 445.78125 374.226562 466.996094 352.113281 466.996094 326.027344 C 466.996094 299.941406 445.253906 277.300781 418.195312 277.300781 C 391.132812 277.300781 369.917969 299.039062 369.992188 326.101562 C 369.992188 353.089844 392.179688 375.277344 419.242188 374.753906 Z M 419.242188 374.753906 " fill-opacity="1" fill-rule="nonzero"/></g><g clip-path="url(#045dd2f5e8)"><path fill="#dbe3c9" d="M 571.492188 487.421875 L 538.808594 487.421875 C 534.234375 487.421875 530.488281 483.675781 530.488281 479.101562 L 530.488281 236.371094 C 530.488281 231.796875 534.234375 228.050781 538.808594 228.050781 L 603.351562 228.050781 C 643.308594 228.050781 676.214844 260.359375 676.214844 300.839844 L 676.214844 301.289062 C 676.214844 345.890625 639.632812 382.398438 594.957031 382.398438 L 588.132812 382.398438 C 583.5625 382.398438 579.8125 386.148438 579.8125 390.71875 L 579.8125 479.101562 C 579.8125 483.675781 576.140625 487.421875 571.492188 487.421875 Z M 594.207031 333.074219 C 618.496094 333.074219 632.4375 314.109375 624.417969 291.242188 C 621.417969 282.625 615.121094 277.375 603.351562 277.375 L 588.132812 277.375 C 583.5625 277.375 579.8125 281.125 579.8125 285.695312 L 579.8125 324.828125 C 579.8125 329.398438 583.5625 333.148438 588.132812 333.148438 L 594.207031 333.148438 Z M 594.207031 333.074219 " fill-opacity="1" fill-rule="nonzero"/></g><g clip-path="url(#3e6a7f6d0a)"><path fill="#dbe3c9" d="M 248.851562 816.359375 L 212.269531 816.359375 C 206.199219 816.359375 201.25 811.410156 201.25 805.339844 L 201.25 759.914062 C 201.25 747.394531 183.632812 744.546875 179.734375 756.464844 L 162.570312 808.714844 C 161.070312 813.210938 156.871094 816.285156 152.074219 816.285156 L 109.421875 816.285156 C 104.625 816.285156 100.425781 813.210938 98.925781 808.714844 L 81.757812 756.464844 C 77.863281 744.546875 60.246094 747.394531 60.246094 759.914062 L 60.246094 805.339844 C 60.246094 811.410156 55.296875 816.359375 49.226562 816.359375 L 12.570312 816.359375 C 6.496094 816.359375 1.550781 811.410156 1.550781 805.339844 L 1.550781 519.28125 C 1.550781 513.210938 6.496094 508.261719 12.570312 508.261719 L 53.574219 508.261719 C 58.371094 508.261719 62.570312 511.335938 64.070312 515.832031 L 120.214844 685.625 C 123.589844 695.742188 137.832031 695.742188 141.207031 685.625 L 197.351562 515.832031 C 198.851562 511.335938 203.050781 508.261719 207.847656 508.261719 L 248.851562 508.261719 C 254.925781 508.261719 259.871094 513.210938 259.871094 519.28125 L 259.871094 805.339844 C 259.871094 811.410156 254.925781 816.359375 248.851562 816.359375 Z M 248.851562 816.359375 " fill-opacity="1" fill-rule="nonzero"/></g><g clip-path="url(#49ec20d3e7)"><path fill="#dbe3c9" d="M 466.621094 807.515625 L 466.621094 577.453125 C 466.621094 571.53125 461.820312 566.734375 455.898438 566.734375 L 287.382812 566.734375 C 281.460938 566.734375 276.664062 561.933594 276.664062 556.011719 L 276.664062 518.832031 C 276.664062 512.910156 281.460938 508.113281 287.382812 508.113281 L 670.96875 508.113281 C 676.890625 508.113281 681.6875 512.910156 681.6875 518.832031 L 681.6875 556.011719 C 681.6875 561.933594 676.890625 566.734375 670.96875 566.734375 L 535.960938 566.734375 C 530.039062 566.734375 525.242188 571.53125 525.242188 577.453125 L 525.242188 807.515625 C 525.242188 812.386719 521.269531 816.359375 516.394531 816.359375 L 475.464844 816.359375 C 470.59375 816.359375 466.621094 812.386719 466.621094 807.515625 Z M 449.828125 670.632812 C 449.828125 623.40625 412.121094 585.625 365.792969 584.199219 C 316.84375 582.773438 276.589844 622.582031 276.589844 671.53125 L 276.589844 807.515625 C 276.589844 812.386719 280.5625 816.359375 285.433594 816.359375 L 326.4375 816.359375 C 331.3125 816.359375 335.285156 812.386719 335.285156 807.515625 L 335.285156 776.328125 C 335.285156 771.457031 339.257812 767.484375 344.128906 767.484375 L 381.613281 767.484375 C 386.484375 767.484375 390.457031 771.457031 390.457031 776.328125 L 390.457031 807.515625 C 390.457031 812.386719 394.429688 816.359375 399.304688 816.359375 L 440.980469 816.359375 C 445.855469 816.359375 449.828125 812.386719 449.828125 807.515625 Z M 347.652344 709.011719 C 340.832031 709.011719 335.359375 703.539062 335.359375 696.71875 L 335.359375 670.707031 C 335.359375 655.339844 347.953125 642.820312 363.320312 642.820312 C 378.6875 642.820312 390.53125 655.339844 390.53125 670.707031 L 390.53125 696.71875 C 390.53125 703.539062 384.984375 709.011719 378.238281 709.011719 Z M 673.816406 757.738281 L 609.199219 757.738281 C 604.851562 757.738281 601.328125 754.214844 601.328125 749.867188 L 601.328125 737.648438 C 601.328125 733.300781 604.851562 729.777344 609.199219 729.777344 L 673.816406 729.777344 C 678.164062 729.777344 681.6875 726.253906 681.6875 721.90625 L 681.6875 678.351562 C 681.6875 674.003906 678.164062 670.480469 673.816406 670.480469 L 609.199219 670.480469 C 604.851562 670.480469 601.328125 666.957031 601.328125 662.609375 L 601.328125 650.617188 C 601.328125 646.269531 604.851562 642.746094 609.199219 642.746094 L 673.816406 642.746094 C 678.164062 642.746094 681.6875 639.222656 681.6875 634.875 L 681.6875 591.996094 C 681.6875 587.648438 678.164062 584.125 673.816406 584.125 L 542.78125 584.125 L 542.78125 816.285156 L 673.890625 816.285156 C 678.238281 816.285156 681.761719 812.761719 681.761719 808.414062 L 681.761719 765.535156 C 681.6875 761.261719 678.164062 757.738281 673.816406 757.738281 Z M 673.816406 757.738281 " fill-opacity="1" fill-rule="nonzero"/></g><g clip-path="url(#1b83f2ba74)"><path stroke-linecap="butt" transform="matrix(0.74963, 0, 0, 0.74963, 0.199913, 202.33781)" fill="none" stroke-linejoin="miter" d="M 622.20206 807.302282 L 622.20206 500.400779 C 622.20206 492.501046 615.797857 486.102054 607.898124 486.102054 L 383.099651 486.102054 C 375.199918 486.102054 368.800926 479.697851 368.800926 471.798117 L 368.800926 422.200717 C 368.800926 414.300984 375.199918 407.901992 383.099651 407.901992 L 894.800171 407.901992 C 902.699904 407.901992 909.098897 414.300984 909.098897 422.200717 L 909.098897 471.798117 C 909.098897 479.697851 902.699904 486.102054 894.800171 486.102054 L 714.700848 486.102054 C 706.801115 486.102054 700.402122 492.501046 700.402122 500.400779 L 700.402122 807.302282 C 700.402122 813.800282 695.102631 819.099773 688.599421 819.099773 L 633.999551 819.099773 C 627.501551 819.099773 622.20206 813.800282 622.20206 807.302282 Z M 599.800377 624.701724 C 599.800377 561.701874 549.499504 511.301994 487.698162 509.400013 C 422.400302 507.498033 368.701919 560.602373 368.701919 625.900232 L 368.701919 807.302282 C 368.701919 813.800282 374.00141 819.099773 380.499409 819.099773 L 435.198287 819.099773 C 441.701497 819.099773 447.000988 813.800282 447.000988 807.302282 L 447.000988 765.698411 C 447.000988 759.200412 452.300479 753.900921 458.798479 753.900921 L 508.80233 753.900921 C 515.300329 753.900921 520.59982 759.200412 520.59982 765.698411 L 520.59982 807.302282 C 520.59982 813.800282 525.899312 819.099773 532.402522 819.099773 L 587.997675 819.099773 C 594.500885 819.099773 599.800377 813.800282 599.800377 807.302282 Z M 463.498716 675.898873 C 454.400474 675.898873 447.099995 668.598394 447.099995 659.500152 L 447.099995 624.800731 C 447.099995 604.301028 463.899955 587.600075 484.399658 587.600075 C 504.899362 587.600075 520.698828 604.301028 520.698828 624.800731 L 520.698828 659.500152 C 520.698828 668.598394 513.299342 675.898873 504.300107 675.898873 Z M 898.598922 740.899711 L 812.400119 740.899711 C 806.600381 740.899711 801.900144 736.199474 801.900144 730.399736 L 801.900144 714.100023 C 801.900144 708.300285 806.600381 703.600048 812.400119 703.600048 L 898.598922 703.600048 C 904.39866 703.600048 909.098897 698.899811 909.098897 693.100073 L 909.098897 634.998474 C 909.098897 629.198736 904.39866 624.498499 898.598922 624.498499 L 812.400119 624.498499 C 806.600381 624.498499 801.900144 619.798262 801.900144 613.998524 L 801.900144 598.001043 C 801.900144 592.201305 806.600381 587.501068 812.400119 587.501068 L 898.598922 587.501068 C 904.39866 587.501068 909.098897 582.800831 909.098897 577.001093 L 909.098897 519.800981 C 909.098897 514.001243 904.39866 509.301006 898.598922 509.301006 L 723.799089 509.301006 L 723.799089 819.000766 L 898.697929 819.000766 C 904.497667 819.000766 909.197904 814.300529 909.197904 808.500791 L 909.197904 751.300679 C 909.098897 745.599948 904.39866 740.899711 898.598922 740.899711 Z M 898.598922 740.899711 " stroke="#231f20" stroke-width="0.241" stroke-opacity="1" stroke-miterlimit="2.41"/></g><path fill="#dbe3c9" d="M 754.71875 746.15625 L 781.328125 801.105469 C 782.453125 803.355469 782.980469 805.003906 782.980469 806.128906 C 782.980469 808.527344 781.105469 810.625 777.28125 812.5 C 775.03125 813.625 773.308594 814.148438 772.035156 814.148438 C 770.761719 814.148438 769.710938 813.847656 768.886719 813.25 C 768.0625 812.648438 767.460938 812.050781 767.085938 811.375 C 766.710938 810.699219 766.1875 809.726562 765.585938 808.378906 L 760.488281 797.734375 L 733.203125 797.734375 L 728.105469 808.378906 C 727.429688 809.726562 726.90625 810.625 726.605469 811.226562 C 726.230469 811.824219 725.632812 812.425781 724.808594 813.023438 C 723.984375 813.625 722.933594 813.925781 721.660156 813.925781 C 720.386719 813.925781 718.585938 813.398438 716.410156 812.273438 C 712.589844 810.402344 710.714844 808.300781 710.714844 805.976562 C 710.714844 804.855469 711.238281 803.203125 712.363281 800.957031 L 738.976562 745.859375 C 739.726562 744.359375 740.773438 743.160156 742.273438 742.183594 C 743.773438 741.285156 745.273438 740.761719 746.921875 740.761719 C 750.371094 740.984375 752.992188 742.710938 754.71875 746.15625 Z M 746.695312 769.769531 L 740.175781 783.265625 L 753.292969 783.265625 Z M 746.695312 769.769531 " fill-opacity="1" fill-rule="nonzero"/><path fill="#dbe3c9" d="M 788.390625 749.679688 C 788.390625 748.183594 788.464844 747.058594 788.539062 746.308594 C 788.613281 745.558594 788.988281 744.660156 789.511719 743.683594 C 790.414062 741.886719 792.960938 740.984375 797.160156 740.984375 C 801.730469 740.984375 804.503906 742.183594 805.332031 744.660156 C 805.628906 745.78125 805.78125 747.507812 805.78125 749.757812 L 805.78125 804.554688 C 805.78125 806.128906 805.707031 807.253906 805.628906 808.003906 C 805.554688 808.753906 805.253906 809.578125 804.730469 810.550781 C 803.832031 812.351562 801.207031 813.175781 797.085938 813.175781 C 792.511719 813.175781 789.8125 811.902344 788.988281 809.425781 C 788.613281 808.378906 788.390625 806.726562 788.390625 804.402344 Z M 788.390625 749.679688 " fill-opacity="1" fill-rule="nonzero"/></svg>